<?xml version="1.0" encoding="iso-8859-1"?>
<!-- Generator: Adobe Illustrator 19.0.0, SVG Export Plug-In . SVG Version: 6.00 Build 0)  -->
<svg version="1.1" id="Capa_1" xmlns="http://www.w3.org/2000/svg" xmlns:xlink="http://www.w3.org/1999/xlink" x="0px" y="0px"
	 viewBox="0 0 512 512" style="enable-background:new 0 0 512 512;" xml:space="preserve">
<g>
	<path style="fill:#579ADD;" d="M194.247,361.772c-79.495-15.16-139.256-82.173-142.085-173.214
		C48.936,84.694,129.849,10.843,226.443,9.23h160.656v76.828l-136.774-0.003c-52.112-0.005-100.954,42.562-99.261,94.867
		c1.693,52.306,48.174,92.469,86.503,92.421h30.066c4.2,0,7.607-3.406,7.607-7.607v-98.579c0-5.416,4.394-9.81,9.81-9.81h113.163
		L194.247,361.772L194.247,361.772z"/>
	<path style="fill:#E85454;" d="M338.583,377.186V231.003c0-5.416,4.391-9.81,9.807-9.81h145.072L338.583,377.186L338.583,377.186z"
		/>
	<g>
		<path style="fill:#4987CE;" d="M270.293,86.055l116.806,0.002l0,0l-116.774-0.002C270.314,86.055,270.303,86.055,270.293,86.055z"
			/>
		<path style="fill:#4987CE;" d="M295.239,167.158c0-5.416,4.394-9.81,9.81-9.81h-20c-5.416,0-9.81,4.394-9.81,9.81v98.579
			c0,4.2-3.406,7.607-7.607,7.607h14.845l12.762-12.791V167.158z"/>
		<path style="fill:#4987CE;" d="M72.162,188.558C68.936,84.694,149.849,10.843,246.443,9.23h-20
			c-96.594,1.613-177.506,75.464-174.28,179.328c2.829,91.042,62.59,158.054,142.085,173.214l3.864-3.872
			C126.79,337.254,74.796,273.326,72.162,188.558z"/>
	</g>
	<path style="fill:#D84848;" d="M358.583,231.003c0-5.416,4.391-9.81,9.807-9.81h-20c-5.416,0-9.807,4.394-9.807,9.81v146.183
		l20-20.144V231.003z"/>
	<path style="fill:#579ADD;" d="M35.164,502.768h30.871V461.43H47.424v25.59c0,0.694-0.564,1.255-1.255,1.255h-5.546
		c-11.733,0-21.252-9.339-21.252-20.849c0-11.511,9.519-20.849,21.252-20.849H65.32v-14.498H35.164
		C15.748,432.08,0,447.912,0,467.427C0,486.941,15.748,502.768,35.164,502.768L35.164,502.768z M98.249,502.768H79.458v-70.689
		h18.791V502.768L98.249,502.768z M154.774,488.276h-5.543c-11.733,0-21.252-9.339-21.252-20.849
		c0-11.511,9.519-20.849,21.252-20.849h24.697v-14.498h-30.156c-19.416,0-35.165,15.833-35.165,35.347s15.748,35.342,35.165,35.342
		h30.871v-41.338h-18.614v25.59C156.029,487.714,155.468,488.276,154.774,488.276L154.774,488.276z M230.677,432.08l27.38,70.689
		h-20.579l-4.876-15.059h-27.55l-5.157,15.059h-18.969l26.843-70.689H230.677L230.677,432.08z M308.851,466.531
		c7.289-3.003,11.481-8.835,11.664-16.14c0.262-10.393-7.937-19.255-22.459-18.312h-32.908v70.689h32.643
		c15.07-0.519,24.186-8.089,24.47-18.698C322.47,476.257,317.686,469.291,308.851,466.531L308.851,466.531z M393.307,432.08h-21.94
		l-13.378,28.493l-14.09-28.493h-21.773l26.305,44.204v26.485h18.794v-26.231L393.307,432.08L393.307,432.08z M452.435,432.08
		h-53.243v14.222h17.213v56.466h18.908v-56.466h17.123L452.435,432.08L452.435,432.08z M510.941,432.08h-49.943v70.689H512v-13.385
		h-32.007v-15.785h29.163v-13.47H480.08v-14.45h30.86V432.08H510.941z M219.191,446.408l9.045,27.968h-18.619L219.191,446.408
		L219.191,446.408z M293.01,489.467c6.436,0.005,10.29-3.623,10.409-8.38c0.122-4.757-3.607-8.385-10.409-8.385h-9.132v16.765
		L293.01,489.467L293.01,489.467z M292.075,460.127c6.054,0,9.68-3.184,9.794-7.358s-3.395-7.358-9.794-7.358h-8.197v14.715h8.197
		V460.127z"/>
</g>
<g>
</g>
<g>
</g>
<g>
</g>
<g>
</g>
<g>
</g>
<g>
</g>
<g>
</g>
<g>
</g>
<g>
</g>
<g>
</g>
<g>
</g>
<g>
</g>
<g>
</g>
<g>
</g>
<g>
</g>
</svg>
